<?xml version="1.0" encoding="UTF-8"?>
<svg width="48px" height="48px" viewBox="0 0 48 48" version="1.1" xmlns="http://www.w3.org/2000/svg">
    <g stroke="none" stroke-width="1" fill="none" fill-rule="evenodd">
        <circle fill="#E0D6FF" cx="24" cy="24" r="24"></circle>
        
        <!-- Main Cloud -->
        <path d="M36,28c0,3.314-2.686,6-6,6H14c-3.314,0-6-2.686-6-6c0-2.729,1.824-5.039,4.316-5.778
               C12.648,18.955,15.575,16,19.186,16c2.704,0,5.05,1.545,6.204,3.792C26.05,19.289,26.988,19,28,19
               c3.314,0,6,2.686,6,6c0,0.34-0.028,0.672-0.083,0.997C35.284,26.664,36,27.261,36,28z" 
              fill="#FFFFFF" stroke="#A0E7E5" stroke-width="1.5"></path>
        
        <!-- Small Cloud Puff 1 -->
        <circle fill="#FFFFFF" stroke="#A0E7E5" stroke-width="1.5" cx="16" cy="24" r="4"></circle>
        
        <!-- Small Cloud Puff 2 -->
        <circle fill="#FFFFFF" stroke="#A0E7E5" stroke-width="1.5" cx="32" cy="24" r="3"></circle>
        
        <!-- Cloud Face -->
        <!-- Eyes -->
        <circle fill="#4B3F8F" cx="21" cy="26" r="1.5"></circle>
        <circle fill="#4B3F8F" cx="27" cy="26" r="1.5"></circle>
        
        <!-- Smile -->
        <path d="M22,30 C22,30 23.5,31.5 24,31.5 C24.5,31.5 26,30 26,30" stroke="#4B3F8F" stroke-width="1.5" stroke-linecap="round"></path>
        
        <!-- Small Stars -->
        <path d="M14,16 L14,12 M12,14 L16,14" stroke="#FFD166" stroke-width="1.5" stroke-linecap="round"></path>
        <path d="M34,18 L34,15 M32.5,16.5 L35.5,16.5" stroke="#FF85A1" stroke-width="1.5" stroke-linecap="round"></path>
    </g>
</svg>
