<?xml version="1.0" encoding="UTF-8"?>
<svg width="24px" height="24px" viewBox="0 0 24 24" version="1.1" xmlns="http://www.w3.org/2000/svg">
    <g stroke="none" stroke-width="1" fill="none" fill-rule="evenodd">
        <rect fill="#FFC5D9" x="0" y="0" width="24" height="24" rx="12"></rect>
        <path d="M7,7 L17,7 C18.1045695,7 19,7.8954305 19,9 L19,15 C19,16.1045695 18.1045695,17 17,17 L7,17 C5.8954305,17 5,16.1045695 5,15 L5,9 C5,7.8954305 5.8954305,7 7,7 Z" stroke="#6B4EFF" stroke-width="2"></path>
        <circle fill="#6B4EFF" cx="8.5" cy="10.5" r="1.5"></circle>
        <circle fill="#6B4EFF" cx="15.5" cy="10.5" r="1.5"></circle>
        <path d="M9,14 C9,14 10.5,15 12,15 C13.5,15 15,14 15,14" stroke="#6B4EFF" stroke-width="1.5" stroke-linecap="round"></path>
    </g>
</svg>
