<?xml version="1.0" encoding="UTF-8"?>
<svg width="48px" height="48px" viewBox="0 0 48 48" version="1.1" xmlns="http://www.w3.org/2000/svg">
    <g stroke="none" stroke-width="1" fill="none" fill-rule="evenodd">
        <circle fill="#E0D6FF" cx="24" cy="24" r="24"></circle>
        <g transform="translate(8, 6)">
            <!-- Body -->
            <ellipse fill="#4B3F8F" cx="16" cy="20" rx="14" ry="16"></ellipse>
            
            <!-- Eyes background -->
            <circle fill="#FFFFFF" cx="10" cy="16" r="5"></circle>
            <circle fill="#FFFFFF" cx="22" cy="16" r="5"></circle>
            
            <!-- Pupils -->
            <circle fill="#4B3F8F" cx="10" cy="16" r="2.5"></circle>
            <circle fill="#4B3F8F" cx="22" cy="16" r="2.5"></circle>
            
            <!-- Beak -->
            <path d="M16,19 L13,23 L19,23 Z" fill="#FFB347"></path>
            
            <!-- Ears/Tufts -->
            <path d="M6,8 L10,14 L3,12 Z" fill="#4B3F8F"></path>
            <path d="M26,8 L22,14 L29,12 Z" fill="#4B3F8F"></path>
            
            <!-- Belly -->
            <ellipse fill="#6B4EFF" cx="16" cy="25" rx="8" ry="7"></ellipse>
            
            <!-- Wings -->
            <path d="M2,18 C2,18 0,22 2,26 C4,30 8,28 8,28" stroke="#6B4EFF" stroke-width="1.5" stroke-linecap="round"></path>
            <path d="M30,18 C30,18 32,22 30,26 C28,30 24,28 24,28" stroke="#6B4EFF" stroke-width="1.5" stroke-linecap="round"></path>
        </g>
    </g>
</svg>
