<?xml version="1.0" encoding="UTF-8"?>
<svg width="48px" height="48px" viewBox="0 0 48 48" version="1.1" xmlns="http://www.w3.org/2000/svg">
    <g stroke="none" stroke-width="1" fill="none" fill-rule="evenodd">
        <circle fill="#E0D6FF" cx="24" cy="24" r="24"></circle>
        
        <!-- Pencil Body -->
        <rect fill="#FFD166" x="14" y="8" width="20" height="32" rx="2"></rect>
        
        <!-- Pencil Tip -->
        <polygon fill="#FF85A1" points="24,40 19,36 29,36"></polygon>
        
        <!-- Pencil Eraser -->
        <rect fill="#FF85A1" x="14" y="8" width="20" height="6" rx="2"></rect>
        
        <!-- Pencil Metal Band -->
        <rect fill="#A0E7E5" x="14" y="14" width="20" height="2"></rect>
        
        <!-- Pencil Wood Grain Lines -->
        <line x1="18" y1="20" x2="18" y2="34" stroke="#E5BC5C" stroke-width="1"></line>
        <line x1="24" y1="20" x2="24" y2="34" stroke="#E5BC5C" stroke-width="1"></line>
        <line x1="30" y1="20" x2="30" y2="34" stroke="#E5BC5C" stroke-width="1"></line>
        
        <!-- Pencil Face -->
        <circle fill="#FFFFFF" cx="24" cy="24" r="8"></circle>
        
        <!-- Eyes -->
        <circle fill="#4B3F8F" cx="21" cy="22" r="1.5"></circle>
        <circle fill="#4B3F8F" cx="27" cy="22" r="1.5"></circle>
        
        <!-- Smile -->
        <path d="M21,26 C21,26 22.5,28 24,28 C25.5,28 27,26 27,26" stroke="#4B3F8F" stroke-width="1.5" stroke-linecap="round"></path>
    </g>
</svg>
